<svg xmlns="http://www.w3.org/2000/svg" viewBox="0 0 256 256">
  <rect width="256" height="256" rx="48" fill="#1e293b"/>
  <g transform="translate(128 120)" stroke="#e2e8f0" stroke-width="8" fill="none" stroke-linejoin="round" stroke-linecap="round">
    <path d="M-18 -60 L-18 -30 L-58 46 C-64 60 -54 72 -40 72 L40 72 C54 72 64 60 58 46 L18 -30 L18 -60 Z"/>
    <line x1="-28" y1="-60" x2="28" y2="-60"/>
  </g>
  <path d="M128 116 C148 134 158 150 158 162 C158 176 146 184 134 180 L138 196 L118 196 L122 180 C110 184 98 176 98 162 C98 150 108 134 128 116Z" fill="#60a5fa"/>
</svg>
